HIERARCHY
ROOT root
{
	OFFSET 0.000000 0.000000 0.000000
	CHANNELS 6 Xposition Yposition Zposition Zrotation Yrotation Xrotation
	JOINT lhip
	{
		OFFSET 0.058581 -0.082280 -0.017664
		CHANNELS 3 Zrotation Yrotation Xrotation
		JOINT lknee
		{
			OFFSET 0.043451 -0.386469 0.008037
			CHANNELS 3 Zrotation Yrotation Xrotation
			JOINT lankle
			{
				OFFSET -0.014790 -0.426874 -0.037428
				CHANNELS 3 Zrotation Yrotation Xrotation
				JOINT ltoe
				{
					OFFSET 0.041054 -0.060286 0.122042
					CHANNELS 3 Zrotation Yrotation Xrotation
					End Site
					{
						OFFSET 0.000000 0.000000 0.000000
					}
				}
			}
		}
	}
	JOINT rhip
	{
		OFFSET -0.060310 -0.090513 -0.013543
		CHANNELS 3 Zrotation Yrotation Xrotation
		JOINT rknee
		{
			OFFSET -0.043257 -0.383688 -0.004843
			CHANNELS 3 Zrotation Yrotation Xrotation
			JOINT rankle
			{
				OFFSET 0.019056 -0.420046 -0.034562
				CHANNELS 3 Zrotation Yrotation Xrotation
				JOINT rtoe
				{
					OFFSET -0.034840 -0.062106 0.130323
					CHANNELS 3 Zrotation Yrotation Xrotation
					End Site
					{
						OFFSET 0.000000 0.000000 0.000000
					}
				}
			}
		}
	}
	JOINT lowerback
	{
		OFFSET 0.004439 0.124404 -0.038385
		CHANNELS 3 Zrotation Yrotation Xrotation
		JOINT upperback
		{
			OFFSET 0.004488 0.137956 0.026820
			CHANNELS 3 Zrotation Yrotation Xrotation
			JOINT chest
			{
				OFFSET -0.002265 0.056032 0.002855
				CHANNELS 3 Zrotation Yrotation Xrotation
				JOINT lowerneck
				{
					OFFSET -0.013390 0.211636 -0.033468
					CHANNELS 3 Zrotation Yrotation Xrotation
					JOINT upperneck
					{
						OFFSET 0.010113 0.088937 0.050410
						CHANNELS 3 Zrotation Yrotation Xrotation
						End Site
						{
							OFFSET 0.000000 0.000000 0.000000
						}
					}
				}
				JOINT lclavicle
				{
					OFFSET 0.071702 0.114000 -0.018898
					CHANNELS 3 Zrotation Yrotation Xrotation
					JOINT lshoulder
					{
						OFFSET 0.122921 0.045205 -0.019046
						CHANNELS 3 Zrotation Yrotation Xrotation
						JOINT lelbow
						{
							OFFSET 0.255332 -0.015649 -0.022946
							CHANNELS 3 Zrotation Yrotation Xrotation
							JOINT lwrist
							{
								OFFSET 0.265709 0.012698 -0.007375
								CHANNELS 3 Zrotation Yrotation Xrotation
								End Site
								{
									OFFSET 0.000000 0.000000 0.000000
								}
							}
						}
					}
				}
				JOINT rclavicle
				{
					OFFSET -0.082954 0.112472 -0.023707
					CHANNELS 3 Zrotation Yrotation Xrotation
					JOINT rshoulder
					{
						OFFSET -0.113228 0.046853 -0.008472
						CHANNELS 3 Zrotation Yrotation Xrotation
						JOINT relbow
						{
							OFFSET -0.260127 -0.014369 -0.031269
							CHANNELS 3 Zrotation Yrotation Xrotation
							JOINT rwrist
							{
								OFFSET -0.269108 0.006794 -0.006027
								CHANNELS 3 Zrotation Yrotation Xrotation
								End Site
								{
									OFFSET 0.000000 0.000000 0.000000
								}
							}
						}
					}
				}
			}
		}
	}
}
MOTION
Frames: 7
Frame Time: 0.033333
1.531189 0.905101 1.030529 -91.835041 -1.338585 86.858652 -5.343347 -2.378763 6.486939 -2.066528 -11.442180 1.497339 2.296209 9.026161 -11.654689 0.000000 -0.000000 0.000000 2.864898 -2.388012 6.132976 -1.084000 1.040401 3.265760 2.848577 -6.846023 -7.030805 0.000000 -0.000000 0.000000 1.522518 2.806157 -3.159979 -1.499930 -1.957189 3.951917 -2.321493 -0.104361 -4.578343 -1.613780 0.417674 -1.767666 6.305653 2.464979 0.448843 -30.678896 -5.674379 6.292860 -53.396995 -2.391267 14.401883 1.847148 -24.228461 8.962987 -17.137900 -17.528275 1.013160 23.763682 8.431449 7.476660 61.603210 -3.793574 14.799471 -7.396541 25.179734 5.257404 11.858699 12.314521 -9.435335 
1.532651 0.904282 1.029477 -91.462388 -1.877356 86.523581 -6.142022 -2.406366 6.561902 -1.888992 -11.732533 1.696323 2.141230 9.191990 -11.703997 0.000000 -0.000000 0.000000 2.818015 -2.022397 6.311717 -1.348047 0.388041 2.641374 2.262374 -8.584527 -10.940060 0.000000 -0.000000 0.000000 0.351809 2.840430 -2.261419 -1.213476 -2.287801 5.327707 -2.146622 -0.289070 -6.305920 -1.203748 0.280308 -3.167342 5.991320 2.466238 1.549868 -30.148404 -5.229729 5.253962 -53.510240 -1.773804 16.127711 1.166113 -23.693849 10.213268 -16.242798 -15.252838 2.865010 23.955971 8.353412 6.426764 61.323980 -4.402125 15.530360 -7.775445 24.646748 4.301466 12.407318 12.227203 -8.372211 
1.533572 0.903397 1.030093 -91.258652 -1.633485 86.313336 -5.941234 -2.507274 6.707029 -1.854083 -11.913084 1.677333 1.885360 9.140721 -11.701311 0.000000 -0.000000 0.000000 3.236913 -2.189800 6.193948 -1.441668 0.075303 2.863018 1.404059 -8.613966 -11.462355 0.000000 -0.000000 0.000000 0.414410 2.729893 -1.484375 -1.166491 -2.489923 5.387411 -2.061474 -0.230114 -7.168368 -1.242255 0.251146 -3.165754 6.108939 2.614747 1.694996 -30.109406 -5.191042 5.092165 -53.561895 -1.253224 16.190351 1.480930 -23.354283 9.917687 -15.188615 -15.261119 3.309708 24.237193 8.378178 6.568497 60.978681 -4.529636 15.291952 -7.960379 24.223048 4.032777 11.822822 12.355184 -8.079177 
1.533440 0.902778 1.030283 -91.163111 -1.537070 86.194664 -5.880939 -2.504562 6.962861 -1.773786 -12.222012 1.441555 1.886032 9.170337 -11.858310 0.000000 -0.000000 0.000000 3.417669 -2.361039 6.220659 -1.496144 0.039564 2.853686 1.242566 -8.843716 -11.957375 0.000000 -0.000000 0.000000 0.415249 2.728687 -1.405818 -1.182042 -2.475966 5.236546 -1.999932 -0.299350 -6.971085 -1.138471 -0.015674 -3.481235 6.208596 2.571909 1.867565 -30.027699 -5.039512 5.112418 -53.584442 -1.120797 15.982571 1.747072 -22.910748 9.884053 -15.543804 -15.390817 3.356733 24.217228 8.245866 6.376824 60.837449 -4.637947 15.055377 -8.036439 23.654425 4.022999 11.882802 12.305738 -8.025321 
1.533360 0.902528 1.030146 -91.114338 -1.525486 86.171889 -5.880762 -2.484882 7.005416 -1.770282 -12.208924 1.424363 1.897630 9.129013 -11.857818 0.000000 -0.000000 0.000000 3.423288 -2.361145 6.198602 -1.485230 0.032512 2.916074 1.201555 -8.810286 -12.043316 0.000000 -0.000000 0.000000 0.392650 2.755907 -1.459245 -1.190477 -2.486254 5.360044 -2.003156 -0.366352 -7.008467 -1.102215 0.112584 -3.466851 6.269674 2.643472 1.933173 -30.077771 -5.073773 5.220556 -53.511335 -1.029076 15.717635 1.925664 -22.392379 9.480649 -15.126878 -15.466223 3.367740 24.254181 8.275807 6.427698 60.783018 -4.692135 14.904468 -8.154892 23.394257 3.999728 11.768034 12.522597 -7.731027 
1.533392 0.902457 1.030071 -91.051325 -1.487790 86.131694 -5.859089 -2.449813 7.060694 -1.719569 -12.304296 1.374880 1.878013 9.107140 -11.843119 0.000000 -0.000000 0.000000 3.462245 -2.395765 6.256527 -1.475809 0.057313 2.867234 1.191598 -8.850589 -12.062535 0.000000 -0.000000 0.000000 0.342010 2.777859 -1.409462 -1.197835 -2.525493 5.396100 -1.988177 -0.334080 -7.041668 -1.127062 0.133072 -3.432602 6.303236 2.631339 1.899690 -29.952906 -4.977624 5.351516 -53.417612 -0.789898 15.633228 1.958217 -22.269182 9.507334 -15.776454 -15.054799 3.299570 24.239503 8.136004 6.488750 60.751337 -4.688896 14.762598 -8.303214 23.281459 3.887103 12.086299 12.555984 -7.581983 
1.533276 0.902492 1.029885 -91.018323 -1.459822 86.146734 -5.825961 -2.419261 7.066497 -1.698891 -12.310514 1.336687 1.922380 9.098592 -11.902607 0.000000 -0.000000 0.000000 3.501955 -2.410904 6.260366 -1.469756 0.049422 2.823543 1.187749 -8.890573 -12.074239 0.000000 -0.000000 0.000000 0.273539 2.788389 -1.451627 -1.182540 -2.492743 5.463998 -2.000003 -0.303236 -7.092536 -1.202905 0.248763 -3.236536 6.268245 2.599625 1.726860 -29.841797 -4.733130 5.195814 -53.334230 -0.645383 15.618297 2.161790 -21.966379 9.421831 -15.790216 -14.915183 3.695898 24.278247 8.024339 6.475536 60.751120 -4.735388 14.760351 -8.398295 23.130159 3.809757 12.065353 12.464693 -7.531929 
